REM DIRINDEX 1\2,1\3,1\4,1\5\6,1\5\7,1\8
REM DIRNAME cjc115,folder01,folder02,folder03,folder04,folder05,folder06,folder07
TITLE ""
FILE "159 【159】Unit9 (1801 to no avail_1812 hang onto ～).mp3" MP3
  TRACK 01 AUDIO
    TITLE "0:"
    INDEX 01 00:00:00
  TRACK 02 AUDIO
    TITLE "2:cjc115_6208"
    INDEX 01 00:00:07
  TRACK 03 AUDIO
    TITLE "0:"
    INDEX 01 00:01:50
  TRACK 04 AUDIO
    TITLE "3:cjc115_6209"
    INDEX 01 00:01:60
  TRACK 05 AUDIO
    TITLE "0:"
    INDEX 01 00:03:49
  TRACK 06 AUDIO
    TITLE "4:cjc115_6210"
    INDEX 01 00:03:53
  TRACK 07 AUDIO
    TITLE "0:"
    INDEX 01 00:08:15
  TRACK 08 AUDIO
    TITLE "2:cjc115_6211"
    INDEX 01 00:09:16
  TRACK 09 AUDIO
    TITLE "0:"
    INDEX 01 00:10:53
  TRACK 10 AUDIO
    TITLE "3:cjc115_6212"
    INDEX 01 00:10:63
  TRACK 11 AUDIO
    TITLE "0:"
    INDEX 01 00:13:14
  TRACK 12 AUDIO
    TITLE "4:cjc115_6213"
    INDEX 01 00:13:18
  TRACK 13 AUDIO
    TITLE "0:"
    INDEX 01 00:17:20
  TRACK 14 AUDIO
    TITLE "2:cjc115_6214"
    INDEX 01 00:18:29
  TRACK 15 AUDIO
    TITLE "0:"
    INDEX 01 00:19:46
  TRACK 16 AUDIO
    TITLE "3:cjc115_6215"
    INDEX 01 00:19:54
  TRACK 17 AUDIO
    TITLE "0:"
    INDEX 01 00:21:13
  TRACK 18 AUDIO
    TITLE "4:cjc115_6216"
    INDEX 01 00:21:15
  TRACK 19 AUDIO
    TITLE "0:"
    INDEX 01 00:24:29
  TRACK 20 AUDIO
    TITLE "2:cjc115_6217"
    INDEX 01 00:25:39
  TRACK 21 AUDIO
    TITLE "0:"
    INDEX 01 00:26:73
  TRACK 22 AUDIO
    TITLE "3:cjc115_6218"
    INDEX 01 00:27:04
  TRACK 23 AUDIO
    TITLE "0:"
    INDEX 01 00:28:33
  TRACK 24 AUDIO
    TITLE "4:cjc115_6219"
    INDEX 01 00:28:41
  TRACK 25 AUDIO
    TITLE "0:"
    INDEX 01 00:32:62
  TRACK 26 AUDIO
    TITLE "2:cjc115_6220"
    INDEX 01 00:33:71
  TRACK 27 AUDIO
    TITLE "0:"
    INDEX 01 00:35:19
  TRACK 28 AUDIO
    TITLE "3:cjc115_6221"
    INDEX 01 00:35:23
  TRACK 29 AUDIO
    TITLE "0:"
    INDEX 01 00:38:02
  TRACK 30 AUDIO
    TITLE "4:cjc115_6222"
    INDEX 01 00:38:12
  TRACK 31 AUDIO
    TITLE "0:"
    INDEX 01 00:42:10
  TRACK 32 AUDIO
    TITLE "2:cjc115_6223"
    INDEX 01 00:43:17
  TRACK 33 AUDIO
    TITLE "0:"
    INDEX 01 00:44:52
  TRACK 34 AUDIO
    TITLE "3:cjc115_6224"
    INDEX 01 00:44:61
  TRACK 35 AUDIO
    TITLE "0:"
    INDEX 01 00:47:50
  TRACK 36 AUDIO
    TITLE "4:cjc115_6225"
    INDEX 01 00:47:60
  TRACK 37 AUDIO
    TITLE "0:"
    INDEX 01 00:52:26
  TRACK 38 AUDIO
    TITLE "2:cjc115_6226"
    INDEX 01 00:53:35
  TRACK 39 AUDIO
    TITLE "0:"
    INDEX 01 00:55:36
  TRACK 40 AUDIO
    TITLE "3:cjc115_6227"
    INDEX 01 00:55:44
  TRACK 41 AUDIO
    TITLE "0:"
    INDEX 01 00:57:72
  TRACK 42 AUDIO
    TITLE "4:cjc115_6228"
    INDEX 01 00:58:01
  TRACK 43 AUDIO
    TITLE "0:"
    INDEX 01 01:02:57
  TRACK 44 AUDIO
    TITLE "2:cjc115_6229"
    INDEX 01 01:03:61
  TRACK 45 AUDIO
    TITLE "0:"
    INDEX 01 01:05:09
  TRACK 46 AUDIO
    TITLE "3:cjc115_6230"
    INDEX 01 01:05:22
  TRACK 47 AUDIO
    TITLE "0:"
    INDEX 01 01:07:66
  TRACK 48 AUDIO
    TITLE "4:cjc115_6231"
    INDEX 01 01:07:68
  TRACK 49 AUDIO
    TITLE "0:"
    INDEX 01 01:12:01
  TRACK 50 AUDIO
    TITLE "2:cjc115_6232"
    INDEX 01 01:13:06
  TRACK 51 AUDIO
    TITLE "0:"
    INDEX 01 01:14:21
  TRACK 52 AUDIO
    TITLE "3:cjc115_6233"
    INDEX 01 01:14:41
  TRACK 53 AUDIO
    TITLE "0:"
    INDEX 01 01:17:30
  TRACK 54 AUDIO
    TITLE "4:cjc115_6234"
    INDEX 01 01:17:35
  TRACK 55 AUDIO
    TITLE "0:"
    INDEX 01 01:21:02
  TRACK 56 AUDIO
    TITLE "2:cjc115_6235"
    INDEX 01 01:22:09
  TRACK 57 AUDIO
    TITLE "0:"
    INDEX 01 01:23:38
  TRACK 58 AUDIO
    TITLE "3:cjc115_6236"
    INDEX 01 01:23:42
  TRACK 59 AUDIO
    TITLE "0:"
    INDEX 01 01:25:57
  TRACK 60 AUDIO
    TITLE "4:cjc115_6237"
    INDEX 01 01:25:64
  TRACK 61 AUDIO
    TITLE "0:"
    INDEX 01 01:30:26
  TRACK 62 AUDIO
    TITLE "2:cjc115_6238"
    INDEX 01 01:31:32
  TRACK 63 AUDIO
    TITLE "0:"
    INDEX 01 01:32:68
  TRACK 64 AUDIO
    TITLE "3:cjc115_6239"
    INDEX 01 01:32:72
  TRACK 65 AUDIO
    TITLE "0:"
    INDEX 01 01:36:54
  TRACK 66 AUDIO
    TITLE "4:cjc115_6240"
    INDEX 01 01:36:58
  TRACK 67 AUDIO
    TITLE "0:"
    INDEX 01 01:39:70
  TRACK 68 AUDIO
    TITLE "2:cjc115_6241"
    INDEX 01 01:40:74
  TRACK 69 AUDIO
    TITLE "0:"
    INDEX 01 01:42:31
  TRACK 70 AUDIO
    TITLE "3:cjc115_6242"
    INDEX 01 01:42:39
  TRACK 71 AUDIO
    TITLE "0:"
    INDEX 01 01:44:72
  TRACK 72 AUDIO
    TITLE "4:cjc115_6243"
    INDEX 01 01:45:02
  TRACK 73 AUDIO
    TITLE "0:"
    INDEX 01 01:49:35
